<?xml version="1.0" standalone="no"?><!DOCTYPE svg PUBLIC "-//W3C//DTD SVG 1.1//EN" "http://www.w3.org/Graphics/SVG/1.1/DTD/svg11.dtd"><svg t="1741962049100" class="icon" viewBox="0 0 1024 1024" version="1.1" xmlns="http://www.w3.org/2000/svg" p-id="8020" xmlns:xlink="http://www.w3.org/1999/xlink" width="200" height="200"><path d="M0 739.555556a512 284.444444 0 1 0 1024 0 512 284.444444 0 1 0-1024 0Z" fill="#8899A6" p-id="8021"></path><path d="M0 689.777778a512 284.444444 0 1 0 1024 0 512 284.444444 0 1 0-1024 0Z" fill="#CCD6DD" p-id="8022"></path><path d="M929.422222 673.706667c0 121.173333-186.88 219.363556-417.422222 219.363555S94.577778 794.88 94.577778 673.706667c0-121.116444 186.88-219.335111 417.422222-219.335111 230.513778 0 417.422222 98.218667 417.422222 219.335111" fill="#DD2E44" p-id="8023"></path><path d="M916.849778 641.223111c0 280.291556-809.699556 280.291556-809.699556 0v-249.144889h809.699556z" fill="#F4ABBA" p-id="8024"></path><path d="M511.544889 516.721778c-255.544889 0-404.423111-117.532444-404.423111-117.532445s-0.455111 26.282667-0.455111 47.928889c0 0 0.910222 139.320889 73.159111 139.320889 69.944889 0 64.853333 66.787556 109.056 73.699556 43.832889 6.855111 48.696889-26.680889 103.111111-26.680889s64 59.904 119.552 59.904c65.109333 0 70.456889-59.904 124.842667-59.904s60.643556 34.816 96.312888 25.173333c42.865778-11.605333 23.153778-72.163556 110.563556-72.163555 72.248889 0 74.040889-132.209778 74.040889-132.209778 0-21.617778-0.483556-55.04-0.483556-55.04s-149.703111 117.504-405.276444 117.504" fill="#DD2E44" p-id="8025"></path><path d="M929.422222 362.296889c0 121.144889-186.88 219.363556-417.422222 219.363555S94.577778 483.441778 94.577778 362.296889 281.457778 142.933333 512 142.933333c230.513778 0 417.422222 98.218667 417.422222 219.363556" fill="#EA596E" p-id="8026"></path><path d="M729.998222 392.078222c-17.208889 0-31.146667-13.937778-31.146666-31.146666V142.933333a31.146667 31.146667 0 1 1 62.293333 0v217.998223c0 17.208889-13.937778 31.146667-31.146667 31.146666" fill="#FFF8E8" p-id="8027"></path><path d="M729.998222 189.639111c-33.052444 0-59.050667-15.132444-69.546666-40.476444-9.102222-21.987556-13.624889-69.688889 58.538666-141.824a15.559111 15.559111 0 0 1 22.016 0c72.163556 72.163556 67.640889 119.836444 58.538667 141.824-10.496 25.344-36.494222 40.476444-69.546667 40.476444" fill="#FAAA35" p-id="8028"></path><path d="M512 485.489778c-17.208889 0-31.146667-13.937778-31.146667-31.146667V236.373333a31.146667 31.146667 0 1 1 62.293334 0v217.998223c0 17.180444-13.937778 31.118222-31.146667 31.118222" fill="#FFF8E8" p-id="8029"></path><path d="M512 283.079111c-33.052444 0-59.050667-15.132444-69.546667-40.476444-9.130667-21.987556-13.624889-69.688889 58.538667-141.824a15.559111 15.559111 0 0 1 22.016 0c72.163556 72.163556 67.640889 119.836444 58.538667 141.824-10.496 25.344-36.494222 40.476444-69.546667 40.476444" fill="#FAAA35" p-id="8030"></path><path d="M294.001778 392.078222c-17.208889 0-31.146667-13.937778-31.146667-31.146666V142.933333a31.146667 31.146667 0 1 1 62.293333 0v217.998223c0 17.208889-13.937778 31.146667-31.146666 31.146666" fill="#FFF8E8" p-id="8031"></path><path d="M294.001778 189.639111c-33.052444 0-59.050667-15.132444-69.546667-40.476444-9.130667-21.987556-13.624889-69.688889 58.538667-141.824a15.559111 15.559111 0 0 1 22.016 0c72.163556 72.163556 67.640889 119.836444 58.538666 141.824-10.496 25.344-36.494222 40.476444-69.546666 40.476444" fill="#FAAA35" p-id="8032"></path></svg>